#!OML:ASF H:\Male1\Project 1\Capture day 1\Session 1\Male1.ASF
:FULLY-SPECIFIED
:DEGREES
511
root 40.6445 14.6808 2.80181 184.693 6.76567 -179.68
lowerback 25.2922 -2.68646 -1.94658
upperback 11.6404 -1.27155 -3.46755
thorax -1.17704 0.542238 -2.34055
lowerneck -2.51142 5.52277 5.99388
upperneck -11.5286 7.29518 -8.95971
head -2.72599 3.96173 -4.15617
rclavicle 2.38542e-015 1.98785e-014
rhumerus -2.98028 -7.79698 -52.5158
rradius 123.189
rwrist -15.8402
rhand -37.6329 -2.43438
rfingers 7.12502
rthumb -10.6852 -32.1427
lclavicle 2.38542e-015 1.98785e-014
lhumerus -2.46989 12.4927 39.4345
lradius 115.127
lwrist -11.172
lhand -37.436 20.6242
lfingers 7.12502
lthumb -10.4952 50.3422
rfemur -34.1103 -4.89664 24.1779
rtibia 50.62
rfoot -21.8626 -22.0282
rtoes -26.9789
lfemur -36.0286 -11.389 -17.6805
ltibia 58.1812
lfoot -25.6028 13.0994
ltoes -19.1375
512
root 40.7285 14.7155 2.80274 184.822 6.36232 -179.799
lowerback 25.0989 -2.62289 -2.08966
upperback 11.6361 -1.21802 -3.33739
thorax -1.08013 0.555094 -2.13014
lowerneck -2.62014 5.37962 5.8046
upperneck -11.524 7.11586 -8.86071
head -2.72913 3.87931 -4.08254
rclavicle 4.77083e-015 1.19271e-014
rhumerus -3.25666 -8.00511 -52.2265
rradius 123.162
rwrist -15.9347
rhand -37.622 -2.57388
rfingers 7.12502
rthumb -10.6747 -32.2827
lclavicle 4.77083e-015 1.19271e-014
lhumerus -1.95682 11.8108 39.6141
lradius 115.043
lwrist -11.174
lhand -37.4913 21.539
lfingers 7.12502
lthumb -10.5486 51.2543
rfemur -33.7443 -4.44454 24.3241
rtibia 49.9551
rfoot -21.9985 -22.6011
rtoes -26.4773
lfemur -35.7633 -11.7324 -19.0461
ltibia 56.7439
lfoot -25.5142 10.8033
ltoes -21.5449
513
root 40.8081 14.7495 2.80401 184.948 6.05719 -179.834
lowerback 24.9028 -2.51803 -2.21119
upperback 11.6479 -1.10148 -3.18978
thorax -0.96343 0.600195 -1.92873
lowerneck -2.74845 5.22184 5.6169
upperneck -11.528 6.91858 -8.75947
head -2.73255 3.78858 -4.00821
rclavicle -1.98785e-014 -6.59965e-014
rhumerus -3.51386 -8.27221 -51.8851
rradius 123.126
rwrist -16.0159
rhand -37.6007 -2.66994
rfingers 7.12502
rthumb -10.6541 -32.3798
lclavicle -1.98785e-014 -6.59965e-014
lhumerus -1.40863 11.1185 39.7543
lradius 115.039
lwrist -11.2446
lhand -37.375 21.5426
lfingers 7.12502
lthumb -10.4364 51.2636
rfemur -33.3692 -4.03523 24.5541
rtibia 49.266
rfoot -22.1403 -23.0463
rtoes -25.8986
lfemur -35.4308 -12.2142 -20.0601
ltibia 55.2735
lfoot -25.4841 8.86803
ltoes -23.1971
514
root 40.8829 14.7822 2.80554 185.067 5.85133 -179.801
lowerback 24.7149 -2.39806 -2.33486
upperback 11.6646 -0.965497 -3.0539
thorax -0.845776 0.655165 -1.74335
lowerneck -2.863 5.0879 5.45589
upperneck -11.5547 6.75532 -8.63621
head -2.74291 3.71363 -3.93256
rclavicle 3.73715e-014 7.95139e-016
rhumerus -3.7145 -8.52626 -51.5674
rradius 123.08
rwrist -16.0945
rhand -37.5671 -2.70462
rfingers 7.12502
rthumb -10.6217 -32.4162
lclavicle 3.73715e-014 7.95139e-016
lhumerus -0.896194 10.5117 39.764
lradius 115.087
lwrist -11.3698
lhand -37.127 21.4209
lfingers 7.12502
lthumb -10.1972 51.1538
rfemur -32.9955 -3.67661 24.8472
rtibia 48.5727
rfoot -22.3342 -23.3377
rtoes -25.1015
lfemur -35.0555 -12.8837 -20.7303
ltibia 53.8291
lfoot -25.3663 7.52229
ltoes -24.1697
515
root 40.9529 14.8119 2.80721 185.175 5.74125 -179.72
lowerback 24.5444 -2.2801 -2.47452
upperback 11.6772 -0.838352 -2.94908
thorax -0.7418 0.705533 -1.5801
lowerneck -2.92838 4.99197 5.358
upperneck -11.6249 6.64341 -8.50919
head -2.77094 3.66263 -3.87114
rclavicle -2.70347e-014 -6.2816e-014
rhumerus -3.83881 -8.72246 -51.3182
rradius 123.023
rwrist -16.1852
rhand -37.5323 -2.67363
rfingers 7.12502
rthumb -10.5881 -32.3869
lclavicle -2.70347e-014 -6.2816e-014
lhumerus -0.458914 10.0182 39.6185
lradius 115.179
lwrist -11.5424
lhand -36.7815 21.2622
lfingers 7.12502
lthumb -9.86387 51.0111
rfemur -32.6436 -3.37809 25.1834
rtibia 47.9135
rfoot -22.5739 -23.4733
rtoes -24.141
lfemur -34.6664 -13.7456 -21.0905
ltibia 52.4623
lfoot -25.0218 6.819
ltoes -24.7381
516
root 41.0182 14.8361 2.80945 185.274 5.7177 -179.593
lowerback 24.4017 -2.17326 -2.61485
upperback 11.6754 -0.731897 -2.88336
thorax -0.668436 0.745582 -1.45378
lowerneck -2.95379 4.9459 5.33357
upperneck -11.6977 6.5963 -8.37914
head -2.79989 3.63975 -3.82368
rclavicle -2.3059e-014 -3.4191e-014
rhumerus -3.89406 -8.85379 -51.1592
rradius 122.954
rwrist -16.2841
rhand -37.5033 -2.59073
rfingers 7.12502
rthumb -10.5602 -32.3054
lclavicle -2.3059e-014 -3.4191e-014
lhumerus -0.105424 9.64882 39.3278
lradius 115.277
lwrist -11.697
lhand -36.452 21.2258
lfingers 7.12502
lthumb -9.54595 50.9896
rfemur -32.3438 -3.16204 25.566
rtibia 47.334
rfoot -22.805 -23.4653
rtoes -23.2258
lfemur -34.2857 -14.76 -21.1545
ltibia 51.2318
lfoot -24.4536 6.44567
ltoes -24.0867
517
root 41.079 14.8526 2.81269 185.363 5.77764 -179.417
lowerback 24.3034 -2.07803 -2.73883
upperback 11.652 -0.645274 -2.85633
thorax -0.642 0.776257 -1.37421
lowerneck -2.92378 4.93975 5.36271
upperneck -11.7912 6.60273 -8.2321
head -2.84093 3.64044 -3.7832
rclavicle -7.95139e-015 -1.03368e-014
rhumerus -3.8952 -8.92664 -51.0869
rradius 122.868
rwrist -16.3825
rhand -37.4763 -2.47221
rfingers 7.12502
rthumb -10.5341 -32.1882
lclavicle -7.95139e-015 -1.03368e-014
lhumerus 0.161455 9.3893 38.9198
lradius 115.395
lwrist -11.842
lhand -36.111 21.3236
lfingers 7.12502
lthumb -9.21694 51.1022
rfemur -32.1173 -3.04479 26.003
rtibia 46.8784
rfoot -22.9385 -23.3416
rtoes -22.7496
lfemur -33.9322 -15.7971 -20.9619
ltibia 50.1932
lfoot -23.751 6.47831
ltoes -23.2749
518
root 41.1359 14.8616 2.81762 185.44 5.91958 -179.191
lowerback 24.2476 -1.98303 -2.84707
upperback 11.614 -0.561202 -2.85453
thorax -0.653292 0.806455 -1.33069
lowerneck -2.85306 4.96144 5.44231
upperneck -11.8891 6.64541 -8.08637
head -2.88678 3.65633 -3.75433
rclavicle -2.14687e-014 -1.51076e-014
rhumerus -3.85104 -8.96992 -51.0725
rradius 122.768
rwrist -16.4808
rhand -37.4523 -2.32723
rfingers 7.12502
rthumb -10.511 -32.0444
lclavicle -2.14687e-014 -1.51076e-014
lhumerus 0.349631 9.24006 38.4691
lradius 115.523
lwrist -11.9652
lhand -35.801 21.3665
lfingers 7.12502
lthumb -8.91776 51.158
rfemur -31.9817 -3.05524 26.4987
rtibia 46.5813
rfoot -22.9195 -23.0923
rtoes -22.9371
lfemur -33.6271 -16.6736 -20.5703
ltibia 49.3932
lfoot -23.0331 6.7451
ltoes -22.3887
519
root 41.1887 14.8639 2.82528 185.512 6.12263 -178.922
lowerback 24.2351 -1.88749 -2.93358
upperback 11.5658 -0.475621 -2.86496
thorax -0.697635 0.838547 -1.31365
lowerneck -2.77118 5.00481 5.56898
upperneck -11.9665 6.71461 -7.95808
head -2.92378 3.68259 -3.73972
rclavicle 3.97569e-015 2.8625e-014
rhumerus -3.76989 -9.00963 -51.0846
rradius 122.656
rwrist -16.5816
rhand -37.4363 -2.16541
rfingers 7.12502
rthumb -10.4956 -31.8834
lclavicle 3.97569e-015 2.8625e-014
lhumerus 0.491573 9.16411 38.0009
lradius 115.663
lwrist -12.0493
lhand -35.5689 21.413
lfingers 7.12502
lthumb -8.69379 51.214
rfemur -31.9657 -3.23873 27.0406
rtibia 46.4752
rfoot -22.7655 -22.6608
rtoes -23.6963
lfemur -33.405 -17.2266 -20.0556
ltibia 48.8526
lfoot -22.4153 7.18614
ltoes -21.8613
520
root 41.2387 14.8612 2.83625 185.583 6.38892 -178.633
lowerback 24.2632 -1.77629 -3.03149
upperback 11.5085 -0.375096 -2.87954
thorax -0.771421 0.87781 -1.29887
lowerneck -2.69095 5.06349 5.72337
upperneck -12.0253 6.80356 -7.83444
head -2.9517 3.71667 -3.73087
rclavicle -7.15625e-015 1.19271e-014
rhumerus -3.66625 -9.05124 -51.0923
rradius 122.543
rwrist -16.68
rhand -37.4541 -2.03173
rfingers 7.12502
rthumb -10.5127 -31.7488
lclavicle -7.15625e-015 1.19271e-014
lhumerus 0.598404 9.12604 37.5427
lradius 115.809
lwrist -12.0681
lhand -35.4893 21.4046
lfingers 7.12502
lthumb -8.61702 51.2088
rfemur -32.0912 -3.5539 27.5836
rtibia 46.5949
rfoot -22.535 -21.9909
rtoes -24.8169
lfemur -33.2844 -17.3514 -19.5004
ltibia 48.559
lfoot -21.947 7.72092
ltoes -21.8435
521
root 41.2864 14.855 2.85061 185.651 6.72941 -178.351
lowerback 24.3188 -1.63344 -3.16566
upperback 11.4543 -0.239456 -2.89557
thorax -0.853946 0.934432 -1.27403
lowerneck -2.63506 5.12342 5.92517
upperneck -12.0489 6.88988 -7.75377
head -2.96038 3.74773 -3.7431
rclavicle 3.10104e-014 3.97569e-015
rhumerus -3.54812 -9.10957 -51.0728
rradius 122.438
rwrist -16.7521
rhand -37.5359 -1.99691
rfingers 7.12502
rthumb -10.5916 -31.71
lclavicle 3.10104e-014 3.97569e-015
lhumerus 0.704534 9.11054 37.1289
lradius 115.966
lwrist -12.0825
lhand -35.5155 21.0958
lfingers 7.12502
lthumb -8.64226 50.8989
rfemur -32.3717 -3.92134 28.0686
rtibia 46.9836
rfoot -22.2825 -21.0263
rtoes -26.2412
lfemur -33.2606 -17.0722 -18.9663
ltibia 48.4735
lfoot -21.6276 8.23394
ltoes -22.0631
522
root 41.3315 14.8462 2.86788 185.711 7.14501 -178.097
lowerback 24.3814 -1.46083 -3.3481
upperback 11.4164 -0.069521 -2.91383
thorax -0.920601 1.00848 -1.23265
lowerneck -2.6181 5.18318 6.13148
upperneck -12.0455 6.97354 -7.69455
head -2.95188 3.7775 -3.76064
rclavicle 0 -5.48646e-014
rhumerus -3.39741 -9.18265 -51.0199
rradius 122.342
rwrist -16.7779
rhand -37.6785 -2.09219
rfingers 7.12502
rthumb -10.7292 -31.7982
lclavicle 0 -5.48646e-014
lhumerus 0.844158 9.13839 36.7596
lradius 116.099
lwrist -12.0935
lhand -35.6545 20.8832
lfingers 7.12502
lthumb -8.77636 50.6807
rfemur -32.8162 -4.24862 28.4336
rtibia 47.6811
rfoot -21.9823 -19.7638
rtoes -28.2289
lfemur -33.3197 -16.5313 -18.4872
ltibia 48.5491
lfoot -21.4446 8.5904
ltoes -22.0431
